# xmcd
#
# Track frame offsets:
#	150
#	10755
#	23694
#	36387
#	48262
#	61180
#	73015
#	86925
#	97685
#	107612
#	122130
#	135290
#	146600
#	154575
#	175735
#	186510
#	193857
#	202230
#	215515
#	228942
#	241502
#	252057
#	270765
#	282290
#	297597
#	309647
#
# Disc length: 4259 seconds
#
# Revision: 1
# Processed by: cddbd v1.5.1PL0 Copyright (c) Steve Scherf et al.
# Submitted via: CDex 1.50Beta5
#
DISCID=6e10a11a
DTITLE=Various Artist - PUNKER SHOT2
DYEAR=1900
DGENRE=
TTITLE0=RAPTURE/THE HAPPIEST PERSON
TTITLE1=DONUT MAN/NOTHING
TTITLE2=POODLE PARTY/WALK THE PATH
TTITLE3=SHAFT/ALWAYS SO DO RUNAWAY
TTITLE4=MINX/NOTHING TO LOSE
TTITLE5=NICOTINE/L.S.D.
TTITLE6=BIG HOUSE/I CAN'T GET OVER
TTITLE7=FATIGUE/BITE
TTITLE8=GOEMON/SPREE
TTITLE9=EF/SET IT LOUD
TTITLE10=DISTURB/MY TOWN DOWN
TTITLE11=MAXIMUM THE HORMONE/THE CLAIM OF YOUTH
TTITLE12=SAMON 46/SENCE OF PLEASURE
TTITLE13=STONE HEADS/頭上の光
TTITLE14=HUSH UP/REALISE
TTITLE15=CRUTCH/MAKE UP MY MIND
TTITLE16=THE CHINKEES/NOREHAPSHIDA
TTITLE17=WATCH YOUR STEP/TRIFRING DAY
TTITLE18=SMOOTH 47°/HERE
TTITLE19=NO END WHY/BUSINESS MAN
TTITLE20=FRONT ROW/LIFE STYLE
TTITLE21=NEVER GOOD ENOUGH/MILLION DOLLER HAPPINESS
TTITLE22=HEEL AND TOE/LIVING UP TO MY MIND
TTITLE23=AOH-RINGO JUICE/HEAVEY NIGHT
TTITLE24=SKIPPY/LIFE
TTITLE25=NO MY CAR DAY/MARY PROBOST
EXTD=
EXTT0=
EXTT1=
EXTT2=
EXTT3=
EXTT4=
EXTT5=
EXTT6=
EXTT7=
EXTT8=
EXTT9=
EXTT10=
EXTT11=
EXTT12=
EXTT13=
EXTT14=
EXTT15=
EXTT16=
EXTT17=
EXTT18=
EXTT19=
EXTT20=
EXTT21=
EXTT22=
EXTT23=
EXTT24=
EXTT25=
PLAYORDER=
